<svg xmlns="http://www.w3.org/2000/svg" version="1.1" xmlns:xlink="http://www.w3.org/1999/xlink" xmlns:svgjs="http://svgjs.dev/svgjs" width="1440" height="560" preserveAspectRatio="none" viewBox="0 0 1440 560"><g mask="url(&quot;#SvgjsMask1000&quot;)" fill="none"><rect width="1440" height="560" x="0" y="0" fill="#0e2a47"></rect><path d="M 0,11 C 57.6,61.6 172.8,257.2 288,264 C 403.2,270.8 460.8,66.6 576,45 C 691.2,23.4 748.8,149.2 864,156 C 979.2,162.8 1036.8,70.6 1152,79 C 1267.2,87.4 1382.4,174.2 1440,198L1440 560L0 560z" fill="#184a7e"></path><path d="M 0,325 C 96,345.6 288,412.8 480,428 C 672,443.2 768,393.4 960,401 C 1152,408.6 1344,453 1440,466L1440 560L0 560z" fill="#2264ab"></path></g><defs><mask id="SvgjsMask1000"><rect width="1440" height="560" fill="#ffffff"></rect></mask></defs></svg>